<?xml version="1.0" encoding="utf-8"?>
<!-- Generator: Adobe Illustrator 21.1.0, SVG Export Plug-In . SVG Version: 6.00 Build 0)  -->
<svg version="1.1" id="Calque_1" xmlns="http://www.w3.org/2000/svg" xmlns:xlink="http://www.w3.org/1999/xlink" x="0px" y="0px"
	 viewBox="0 0 1052 830" style="enable-background:new 0 0 1052 830;" xml:space="preserve">
<style type="text/css">
	.st0{fill:none;stroke:#000000;stroke-width:5;}
</style>
<g id="surface1">
	<path d="M844.8,530.7c42.4-14.1,129.7-0.4,127.8,42c-0.8,18.1-32.2,33.9-55.5,45.5c-26,12.8-47.9,19.4-72.3,28.6
		c-50.9,19.3-102.4,33.7-153.1,47.1c-49,13-108.1,24.7-171.5,30.3c-63.8,5.5-130.8,12.6-185,8.4c-49.8-3.9-95.6-21.3-141.3-37
		c-20.9-7.2-42.7-15.9-62.2-27c-28.4-16-50.3-29.9-52.1-63.9c-0.6-9.3-0.4-22.1,1.7-28.6c14.5-46.9,110.8-61.3,159.7-37
		c-4.5-123.4,25.2-273.6,107.6-353.3c30.5-29.4,67.4-49.7,111-69c28.8-12.8,66.4-23.2,112.6-20.1c29.9,1.9,56.8,12.1,82.5,23.5
		c76.4,34.1,133.5,79.3,161.4,163.1c9.4,28.3,14.7,57.5,18.5,90.8C840.1,422,847.2,470.7,844.8,530.7z M809.5,303.6
		c-2.1-6.2-6.1-11.9-8.4-18.5c-13.6-38.7-29.6-64.5-53.8-89.1c-35.3-35.9-86-70.1-143-84.1C543.1,96.7,488.6,114,441.2,137
		c-55.2,26.8-91.7,61.4-121.1,107.6c-15.6,24.5-22.9,44.5-32,67.3c-20.1,50.6-32.2,108.3-32,176.6c34.7,23.2,81.3,32.2,129.6,38.7
		c49.5,6.7,102.6,10.8,158,10.1c99.2-1.4,213.3-5,289.2-37C826.7,430.1,829.3,361.6,809.5,303.6z M491.6,688.8
		c-51.7-6.7-118.2-18.5-169.8-32c-29.7-7.8-58.1-11.4-77.4-28.6c-1-25.3-7.4-50-3.4-80.8c-56.1-22.6-158.5-9.9-149.7,69
		c32,42.4,87.7,65.7,146.3,82.4c68.9,19.5,168.2,34.3,252.3,11.8l0.8,2.6l0.8,2.5c87.1-1.7,181.7-25.9,255.7-48.8
		c38.7-12,81.8-22.5,116-37c15.3-6.5,32.8-14.3,52.1-23.6c14.1-6.7,43.7-14.9,45.4-30.3c3.3-28.6-60.2-41.7-94.1-37
		c-16.4,2.3-33.1,10.8-50.5,16.8c-46.6,16-93.6,37.7-137.9,58.9c-60.6,29-117.2,60.3-185,79l0.8-3.1L491.6,688.8z"/>
	<path class="st0" d="M490.8,713.2c76.2-20.8,152.4-68.7,216.3-94.7c61.8-25,175.8-85.1,232.7-57.6"/>
	<path class="st0" d="M494.2,690.8c-76.9,20-196.8,13.4-284.1-11.4c-28.9-8.2-61.7-29.3-80.8-48.6"/>
</g>
<g>
	<path d="M343.2,350.7c1.2-0.3,2.5-0.5,3.9-0.6c1.4-0.1,2.8-0.1,4.2-0.1c1.5,0,3,0.1,4.5,0.4c1.5,0.3,2.9,0.8,4.2,1.6
		c1.2,0.8,2.3,1.8,3,3.2c0.8,1.3,1.2,3.1,1.2,5.1c0,2-0.4,3.8-1.1,5.2c-0.7,1.4-1.7,2.6-2.9,3.4c-1.2,0.9-2.6,1.5-4.2,1.9
		c-1.6,0.4-3.2,0.6-4.8,0.6c-0.2,0-0.4,0-0.8,0c-0.4,0-0.8,0-1.2,0c-0.4,0-0.8,0-1.2-0.1c-0.4,0-0.7-0.1-0.8-0.1v12.8h-4V350.7z
		 M351.4,353.4c-0.8,0-1.6,0-2.4,0c-0.8,0-1.4,0.1-1.8,0.2v13.9c0.2,0.1,0.4,0.1,0.8,0.1c0.4,0,0.7,0,1.1,0c0.4,0,0.8,0,1.1,0
		c0.4,0,0.6,0,0.8,0c1.1,0,2.2-0.1,3.2-0.3c1.1-0.2,2-0.6,2.9-1.1c0.9-0.5,1.6-1.3,2.1-2.3c0.5-1,0.8-2.3,0.8-3.8
		c0-1.3-0.2-2.4-0.7-3.3c-0.5-0.9-1.2-1.6-2-2.1s-1.7-0.9-2.8-1.1C353.4,353.5,352.4,353.4,351.4,353.4z"/>
	<path d="M382.9,374.6h-12.3l-3.3,9.3h-4l12.7-34.1h1.8l12.8,34.1h-4.2L382.9,374.6z M371.9,371.2h9.8L378,361l-1.2-5.1h0l-1.2,5.2
		L371.9,371.2z"/>
	<path d="M405.2,367.2h11.3V382c-0.5,0.4-1.1,0.7-1.8,1.1c-0.7,0.3-1.5,0.6-2.3,0.8c-0.8,0.2-1.7,0.4-2.5,0.5
		c-0.9,0.1-1.7,0.2-2.6,0.2c-2.1,0-4.1-0.3-5.9-1c-1.8-0.7-3.3-1.7-4.7-3.2c-1.3-1.4-2.3-3.2-3.1-5.4c-0.7-2.2-1.1-4.8-1.1-7.8
		c0-3.1,0.4-5.8,1.3-8c0.9-2.2,2.1-4,3.5-5.4s3.1-2.4,4.8-3c1.8-0.6,3.6-1,5.4-1c1.9,0,3.5,0.1,4.8,0.3c1.2,0.2,2.3,0.5,3.2,0.8
		l-1,3.6c-1.5-0.8-3.7-1.2-6.6-1.2c-1.3,0-2.7,0.2-4,0.7c-1.3,0.5-2.5,1.2-3.6,2.3c-1.1,1.1-1.9,2.5-2.6,4.3c-0.7,1.8-1,3.9-1,6.5
		c0,2.4,0.3,4.4,0.8,6.1c0.5,1.7,1.3,3.2,2.3,4.3c1,1.1,2.1,2,3.5,2.5c1.4,0.6,2.9,0.8,4.5,0.8c2,0,3.8-0.4,5.2-1.2v-9.4l-7.8-1
		V367.2z"/>
	<path d="M423.2,350.3h18.3v3.6h-14.3v11h13.1v3.6h-13.1v12h14.5v3.6h-18.5V350.3z"/>
	<path d="M462.7,350.3h4v33.6h-4V350.3z"/>
	<path d="M481.8,362l-2.6-4.8H479l0.5,4.8v22h-3.7v-34.1h2.1l16.1,22.4l2.5,4.6h0.2l-0.5-4.6v-21.9h3.7v34.1h-2.1L481.8,362z"/>
	<path d="M529.7,353.9h-10.5v30h-4v-30h-10.5v-3.6h24.9V353.9z"/>
	<path d="M534.7,350.7c1.2-0.2,2.6-0.4,4.2-0.5c1.6-0.1,3-0.2,4.3-0.2c1.5,0,2.9,0.2,4.2,0.5c1.3,0.3,2.5,0.8,3.5,1.6
		c1,0.7,1.8,1.7,2.4,2.9c0.6,1.2,0.9,2.6,0.9,4.3c0,2.6-0.7,4.8-2.2,6.4c-1.4,1.6-3.3,2.7-5.5,3.3l2.3,1.8l8.4,13.3h-4.7l-9.3-14.5
		l-4.7-0.7v15.2h-4V350.7z M543.3,353.4c-0.4,0-0.8,0-1.3,0c-0.4,0-0.9,0-1.3,0c-0.4,0-0.8,0.1-1.2,0.1c-0.4,0-0.7,0.1-0.9,0.1v12.4
		h3.7c2.2,0,4-0.5,5.5-1.6s2.2-2.8,2.2-5.1c0-1.7-0.6-3.2-1.8-4.3C547.1,354,545.4,353.4,543.3,353.4z"/>
	<path d="M559.7,367.1c0-5.6,1.2-9.9,3.6-12.9c2.4-3,5.7-4.5,10.1-4.5c2.4,0,4.4,0.4,6.1,1.2c1.7,0.8,3.2,2,4.3,3.5
		c1.1,1.5,2,3.3,2.5,5.5c0.5,2.1,0.8,4.5,0.8,7.1c0,5.6-1.2,9.9-3.6,12.9c-2.4,3-5.8,4.5-10.2,4.5c-2.3,0-4.4-0.4-6.1-1.2
		c-1.7-0.8-3.1-2-4.3-3.5c-1.1-1.5-2-3.3-2.5-5.5C560,372.1,559.7,369.8,559.7,367.1z M564,367.1c0,1.9,0.2,3.6,0.6,5.3
		c0.4,1.7,0.9,3.1,1.7,4.4c0.8,1.3,1.8,2.3,3,3c1.2,0.8,2.6,1.1,4.2,1.1c3,0,5.3-1.1,7-3.4c1.7-2.3,2.5-5.7,2.5-10.4
		c0-1.8-0.2-3.6-0.6-5.3c-0.4-1.7-0.9-3.2-1.7-4.4c-0.8-1.3-1.8-2.3-3-3c-1.2-0.8-2.6-1.1-4.3-1.1c-2.9,0-5.3,1.1-6.9,3.4
		C564.8,359,564,362.4,564,367.1z"/>
	<path d="M613.2,350.3h3.8v22.4c0,2-0.3,3.8-0.8,5.2c-0.5,1.5-1.3,2.7-2.3,3.6c-1,0.9-2.2,1.6-3.5,2.1c-1.4,0.4-2.9,0.7-4.6,0.7
		c-4,0-7-0.9-9-2.7c-2-1.8-3-4.5-3-8.2v-23.2h4v21.3c0,1.7,0.2,3.1,0.5,4.3c0.3,1.2,0.8,2.1,1.5,2.8c0.7,0.7,1.5,1.2,2.5,1.6
		c1,0.3,2.2,0.5,3.5,0.5c2.6,0,4.4-0.7,5.6-2.1c1.1-1.4,1.7-3.8,1.7-7V350.3z"/>
	<path d="M634,373.4l1.2,5.1h0l1.2-5.2l8.1-23h4l-12.7,34.1H634l-13-34.1h4.4L634,373.4z"/>
	<path d="M666.3,374.6H654l-3.3,9.3h-4l12.7-34.1h1.8l12.8,34.1h-4.2L666.3,374.6z M655.3,371.2h9.8l-3.7-10.2l-1.2-5.1h0l-1.2,5.2
		L655.3,371.2z"/>
	<path d="M698.7,358c0,0.8-0.1,1.6-0.4,2.4c-0.3,0.8-0.6,1.6-1.2,2.3c-0.5,0.7-1.2,1.4-2,1.9c-0.8,0.5-1.7,1-2.8,1.2v0.2
		c1,0.2,1.9,0.4,2.8,0.8c0.9,0.4,1.7,0.9,2.3,1.6c0.7,0.7,1.2,1.5,1.6,2.4s0.6,2.1,0.6,3.4c0,1.7-0.4,3.2-1.1,4.5
		c-0.7,1.3-1.7,2.3-2.8,3.1s-2.5,1.4-4,1.8c-1.5,0.4-3,0.6-4.6,0.6c-0.5,0-1.2,0-1.9,0c-0.7,0-1.5,0-2.3-0.1s-1.6-0.1-2.4-0.2
		c-0.8-0.1-1.5-0.2-2.1-0.4v-33.1c1.2-0.2,2.6-0.4,4.1-0.5c1.6-0.1,3.3-0.2,5.1-0.2c1.2,0,2.5,0.1,3.8,0.3c1.3,0.2,2.5,0.6,3.5,1.2
		c1.1,0.6,1.9,1.4,2.6,2.5S698.7,356.4,698.7,358z M684.9,365.1c0.5,0,1.2,0,2,0c0.8,0,1.4-0.1,1.9-0.1c0.8-0.3,1.5-0.6,2.2-0.9
		c0.7-0.4,1.3-0.8,1.8-1.3c0.5-0.5,0.9-1.1,1.2-1.7c0.3-0.7,0.5-1.4,0.5-2.1c0-1.1-0.2-1.9-0.6-2.6c-0.4-0.7-0.9-1.2-1.6-1.7
		c-0.7-0.4-1.4-0.7-2.3-0.9c-0.9-0.2-1.7-0.3-2.6-0.3c-1.1,0-2,0-2.9,0.1s-1.5,0.1-2,0.2v11.4H684.9z M687.6,380.9c1,0,2-0.1,3-0.4
		c1-0.2,1.8-0.6,2.5-1.2s1.3-1.2,1.8-1.9c0.4-0.8,0.6-1.7,0.6-2.7c0-1.3-0.3-2.4-0.8-3.2c-0.5-0.8-1.2-1.4-2.1-1.9
		c-0.8-0.4-1.8-0.8-2.9-0.9c-1.1-0.2-2.1-0.2-3.2-0.2h-4.2v12c0.2,0.1,0.5,0.1,1,0.1c0.4,0,0.9,0.1,1.3,0.1c0.5,0,1,0.1,1.5,0.1
		C686.7,380.9,687.2,380.9,687.6,380.9z"/>
	<path d="M726.3,383.9h-19.9v-33.6h4v30h15.9V383.9z"/>
	<path d="M731.3,350.3h18.3v3.6h-14.3v11h13.1v3.6h-13.1v12h14.5v3.6h-18.5V350.3z"/>
</g>
<g>
	<path d="M302.5,452.1c-0.6,0.5-1.4,0.8-2.3,1s-1.9,0.3-2.9,0.3c-1.3,0-2.4-0.2-3.5-0.6s-2.1-1.1-2.9-2s-1.5-2-2-3.4
		c-0.5-1.4-0.7-3-0.7-4.9c0-2,0.3-3.6,0.8-5s1.2-2.5,2.1-3.4c0.9-0.9,1.8-1.5,2.9-1.9c1.1-0.4,2.2-0.6,3.3-0.6
		c1.2,0,2.2,0.1,2.9,0.2c0.8,0.1,1.4,0.3,1.9,0.5l-0.6,2.2c-1-0.5-2.3-0.7-4.1-0.7c-0.8,0-1.6,0.2-2.4,0.5s-1.5,0.8-2.1,1.5
		c-0.6,0.7-1.1,1.6-1.5,2.7c-0.4,1.1-0.6,2.5-0.6,4c0,1.4,0.2,2.7,0.5,3.8c0.4,1.1,0.9,2,1.5,2.7c0.6,0.7,1.4,1.3,2.2,1.6
		c0.9,0.4,1.8,0.5,2.8,0.5c0.9,0,1.7-0.1,2.4-0.3c0.7-0.2,1.2-0.4,1.7-0.7L302.5,452.1z"/>
	<path d="M318.6,452.9h-12.4v-21h2.5v18.8h9.9V452.9z"/>
	<path d="M322.3,431.9h2.5v21h-2.5V431.9z"/>
	<path d="M329.6,442.4c0-3.5,0.7-6.2,2.2-8.1c1.5-1.9,3.6-2.8,6.3-2.8c1.5,0,2.8,0.3,3.8,0.8c1.1,0.5,2,1.3,2.7,2.2s1.2,2.1,1.6,3.4
		s0.5,2.8,0.5,4.5c0,3.5-0.7,6.2-2.2,8.1c-1.5,1.9-3.6,2.8-6.4,2.8c-1.5,0-2.7-0.3-3.8-0.8c-1.1-0.5-2-1.3-2.7-2.2
		c-0.7-1-1.2-2.1-1.6-3.4C329.7,445.6,329.6,444.1,329.6,442.4z M332.2,442.4c0,1.2,0.1,2.3,0.3,3.3s0.6,2,1.1,2.7
		c0.5,0.8,1.1,1.4,1.8,1.9c0.8,0.5,1.6,0.7,2.7,0.7c1.9,0,3.3-0.7,4.4-2.1c1.1-1.4,1.6-3.6,1.6-6.5c0-1.1-0.1-2.2-0.3-3.3
		c-0.2-1-0.6-2-1.1-2.8c-0.5-0.8-1.1-1.4-1.9-1.9c-0.8-0.5-1.6-0.7-2.7-0.7c-1.8,0-3.3,0.7-4.3,2.1S332.2,439.5,332.2,442.4z
		 M349,458.1c-0.5,0.1-1,0.2-1.4,0.3c-0.5,0-0.9,0.1-1.4,0.1c-1,0-2-0.1-2.9-0.3c-1-0.2-1.9-0.4-2.8-0.7c-0.9-0.2-1.7-0.5-2.6-0.7
		s-1.6-0.3-2.3-0.3c-0.5,0-0.9,0.1-1.4,0.2v-2.2c0.3-0.1,0.5-0.1,0.8-0.2s0.5-0.1,0.8-0.1c0.8,0,1.7,0.1,2.5,0.3
		c0.8,0.2,1.7,0.4,2.5,0.7c0.9,0.2,1.7,0.5,2.6,0.7s1.8,0.3,2.8,0.3c0.9,0,1.8-0.1,2.6-0.3V458.1z"/>
	<path d="M363,431.9h2.4v14c0,1.3-0.2,2.4-0.5,3.3c-0.3,0.9-0.8,1.7-1.4,2.3c-0.6,0.6-1.3,1-2.2,1.3c-0.9,0.3-1.8,0.4-2.9,0.4
		c-2.5,0-4.3-0.6-5.6-1.7s-1.9-2.8-1.9-5.1v-14.5h2.5v13.3c0,1.1,0.1,2,0.3,2.7c0.2,0.7,0.5,1.3,0.9,1.8c0.4,0.5,0.9,0.8,1.6,1
		s1.4,0.3,2.2,0.3c1.6,0,2.8-0.4,3.5-1.3c0.7-0.9,1-2.4,1-4.4V431.9z"/>
	<path d="M370.5,431.9h11.4v2.2H373v6.9h8.2v2.2H373v7.5h9.1v2.2h-11.6V431.9z"/>
	<path d="M385.2,450.7l10.6-15.3l1.3-1.2h-11.8v-2.2h14.1v2.2l-10.7,15.4l-1.3,1.1h11.9v2.2h-14.1V450.7z"/>
	<path d="M409.7,432.2c0.8-0.2,1.6-0.3,2.5-0.4c0.9-0.1,1.8-0.1,2.6-0.1c0.9,0,1.9,0.1,2.8,0.3c0.9,0.2,1.8,0.5,2.6,1
		c0.8,0.5,1.4,1.1,1.9,2s0.7,1.9,0.7,3.2c0,1.3-0.2,2.4-0.7,3.2s-1.1,1.6-1.8,2.1c-0.8,0.6-1.6,0.9-2.6,1.2c-1,0.2-2,0.4-3,0.4
		c-0.1,0-0.3,0-0.5,0c-0.2,0-0.5,0-0.7,0c-0.3,0-0.5,0-0.7,0s-0.4,0-0.5-0.1v8h-2.5V432.2z M414.8,433.9c-0.5,0-1,0-1.5,0
		c-0.5,0-0.9,0.1-1.1,0.1v8.7c0.1,0,0.3,0.1,0.5,0.1s0.5,0,0.7,0c0.2,0,0.5,0,0.7,0s0.4,0,0.5,0c0.7,0,1.4-0.1,2-0.2
		c0.7-0.1,1.3-0.4,1.8-0.7c0.5-0.3,1-0.8,1.3-1.4s0.5-1.4,0.5-2.4c0-0.8-0.2-1.5-0.5-2.1c-0.3-0.5-0.7-1-1.2-1.3
		c-0.5-0.3-1.1-0.6-1.7-0.7C416.1,433.9,415.4,433.9,414.8,433.9z"/>
	<path d="M425,442.4c0-3.5,0.7-6.2,2.2-8.1c1.5-1.9,3.6-2.8,6.3-2.8c1.5,0,2.8,0.3,3.8,0.8c1.1,0.5,2,1.3,2.7,2.2s1.2,2.1,1.6,3.4
		c0.3,1.3,0.5,2.8,0.5,4.5c0,3.5-0.7,6.2-2.2,8.1s-3.6,2.8-6.4,2.8c-1.5,0-2.7-0.3-3.8-0.8c-1.1-0.5-2-1.3-2.7-2.2s-1.2-2.1-1.6-3.4
		S425,444.1,425,442.4z M427.7,442.4c0,1.2,0.1,2.3,0.3,3.3c0.2,1,0.6,2,1.1,2.7c0.5,0.8,1.1,1.4,1.8,1.9c0.8,0.5,1.6,0.7,2.7,0.7
		c1.9,0,3.3-0.7,4.4-2.1c1.1-1.4,1.6-3.6,1.6-6.5c0-1.1-0.1-2.2-0.3-3.3s-0.6-2-1.1-2.8s-1.1-1.4-1.9-1.9c-0.8-0.5-1.6-0.7-2.7-0.7
		c-1.8,0-3.3,0.7-4.3,2.1S427.7,439.5,427.7,442.4z"/>
	<path d="M458.5,431.9h2.4v14c0,1.3-0.2,2.4-0.5,3.3c-0.3,0.9-0.8,1.7-1.4,2.3c-0.6,0.6-1.3,1-2.2,1.3c-0.9,0.3-1.8,0.4-2.9,0.4
		c-2.5,0-4.3-0.6-5.6-1.7s-1.9-2.8-1.9-5.1v-14.5h2.5v13.3c0,1.1,0.1,2,0.3,2.7c0.2,0.7,0.5,1.3,0.9,1.8c0.4,0.5,0.9,0.8,1.6,1
		s1.4,0.3,2.2,0.3c1.6,0,2.8-0.4,3.5-1.3c0.7-0.9,1-2.4,1-4.4V431.9z"/>
	<path d="M466,432.2c0.8-0.1,1.6-0.2,2.6-0.3c1-0.1,1.9-0.1,2.7-0.1c0.9,0,1.8,0.1,2.6,0.3c0.8,0.2,1.6,0.5,2.2,1s1.1,1.1,1.5,1.8
		c0.4,0.7,0.6,1.6,0.6,2.7c0,1.6-0.5,3-1.3,4c-0.9,1-2,1.7-3.4,2l1.4,1.1l5.2,8.3h-2.9l-5.8-9.1l-2.9-0.4v9.5H466V432.2z
		 M471.4,433.9c-0.3,0-0.5,0-0.8,0c-0.3,0-0.6,0-0.8,0c-0.3,0-0.5,0-0.7,0.1c-0.2,0-0.4,0-0.6,0.1v7.7h2.3c1.4,0,2.5-0.3,3.4-1
		c0.9-0.7,1.4-1.7,1.4-3.2c0-1.1-0.4-2-1.1-2.7S472.7,433.9,471.4,433.9z"/>
	<path d="M491.9,432.2c0.8-0.1,1.6-0.2,2.6-0.3c1-0.1,1.9-0.1,2.7-0.1c0.9,0,1.8,0.1,2.6,0.3c0.8,0.2,1.6,0.5,2.2,1s1.1,1.1,1.5,1.8
		c0.4,0.7,0.6,1.6,0.6,2.7c0,1.6-0.5,3-1.3,4c-0.9,1-2,1.7-3.4,2l1.4,1.1l5.2,8.3h-2.9l-5.8-9.1l-2.9-0.4v9.5h-2.5V432.2z
		 M497.3,433.9c-0.3,0-0.5,0-0.8,0c-0.3,0-0.6,0-0.8,0c-0.3,0-0.5,0-0.7,0.1c-0.2,0-0.4,0-0.6,0.1v7.7h2.3c1.4,0,2.5-0.3,3.4-1
		c0.9-0.7,1.4-1.7,1.4-3.2c0-1.1-0.4-2-1.1-2.7S498.6,433.9,497.3,433.9z"/>
	<path d="M509.7,431.9h11.4v2.2h-8.9v6.9h8.2v2.2h-8.2v7.5h9.1v2.2h-11.6V431.9z"/>
	<path d="M539.3,434.2h-6.5v18.8h-2.5v-18.8h-6.5v-2.2h15.6V434.2z"/>
	<path d="M540.1,442.4c0-3.5,0.7-6.2,2.2-8.1c1.5-1.9,3.6-2.8,6.3-2.8c1.5,0,2.8,0.3,3.8,0.8c1.1,0.5,2,1.3,2.7,2.2s1.2,2.1,1.6,3.4
		s0.5,2.8,0.5,4.5c0,3.5-0.7,6.2-2.2,8.1c-1.5,1.9-3.6,2.8-6.4,2.8c-1.5,0-2.7-0.3-3.8-0.8c-1.1-0.5-2-1.3-2.7-2.2
		c-0.7-1-1.2-2.1-1.6-3.4C540.3,445.6,540.1,444.1,540.1,442.4z M542.8,442.4c0,1.2,0.1,2.3,0.3,3.3s0.6,2,1.1,2.7
		c0.5,0.8,1.1,1.4,1.8,1.9c0.8,0.5,1.6,0.7,2.7,0.7c1.9,0,3.3-0.7,4.4-2.1c1.1-1.4,1.6-3.6,1.6-6.5c0-1.1-0.1-2.2-0.3-3.3
		c-0.2-1-0.6-2-1.1-2.8c-0.5-0.8-1.1-1.4-1.9-1.9c-0.8-0.5-1.6-0.7-2.7-0.7c-1.8,0-3.3,0.7-4.3,2.1S542.8,439.5,542.8,442.4z"/>
	<path d="M573.6,431.9h2.4v14c0,1.3-0.2,2.4-0.5,3.3c-0.3,0.9-0.8,1.7-1.4,2.3s-1.3,1-2.2,1.3c-0.9,0.3-1.8,0.4-2.8,0.4
		c-2.5,0-4.3-0.6-5.6-1.7c-1.3-1.1-1.9-2.8-1.9-5.1v-14.5h2.5v13.3c0,1.1,0.1,2,0.3,2.7c0.2,0.7,0.5,1.3,0.9,1.8
		c0.4,0.5,0.9,0.8,1.6,1s1.4,0.3,2.2,0.3c1.6,0,2.8-0.4,3.5-1.3s1-2.4,1-4.4V431.9z"/>
	<path d="M581.1,432.2c0.8-0.1,1.6-0.2,2.6-0.3s1.9-0.1,2.7-0.1c0.9,0,1.8,0.1,2.6,0.3c0.8,0.2,1.6,0.5,2.2,1s1.1,1.1,1.5,1.8
		c0.4,0.7,0.6,1.6,0.6,2.7c0,1.6-0.5,3-1.4,4c-0.9,1-2,1.7-3.4,2l1.4,1.1l5.2,8.3h-2.9l-5.8-9.1l-2.9-0.4v9.5h-2.5V432.2z
		 M586.5,433.9c-0.3,0-0.5,0-0.8,0s-0.5,0-0.8,0c-0.3,0-0.5,0-0.7,0.1c-0.2,0-0.4,0-0.6,0.1v7.7h2.3c1.4,0,2.5-0.3,3.4-1
		c0.9-0.7,1.3-1.7,1.3-3.2c0-1.1-0.4-2-1.1-2.7C588.8,434.2,587.8,433.9,586.5,433.9z"/>
	<path d="M602.7,439.2l-1.6-3H601l0.3,3v13.7h-2.3v-21.3h1.3l10,14l1.6,2.9h0.2l-0.3-2.9v-13.7h2.3v21.3h-1.3L602.7,439.2z"/>
	<path d="M619.1,431.9h11.4v2.2h-8.9v6.9h8.2v2.2h-8.2v7.5h9.1v2.2h-11.6V431.9z"/>
	<path d="M635.2,432.2c0.8-0.1,1.6-0.2,2.6-0.3s1.9-0.1,2.7-0.1c0.9,0,1.8,0.1,2.6,0.3c0.8,0.2,1.6,0.5,2.2,1s1.1,1.1,1.5,1.8
		c0.4,0.7,0.6,1.6,0.6,2.7c0,1.6-0.5,3-1.4,4c-0.9,1-2,1.7-3.4,2l1.4,1.1l5.2,8.3h-2.9l-5.8-9.1l-2.9-0.4v9.5h-2.5V432.2z
		 M640.6,433.9c-0.3,0-0.5,0-0.8,0s-0.5,0-0.8,0c-0.3,0-0.5,0-0.7,0.1c-0.2,0-0.4,0-0.6,0.1v7.7h2.3c1.4,0,2.5-0.3,3.4-1
		c0.9-0.7,1.3-1.7,1.3-3.2c0-1.1-0.4-2-1.1-2.7C642.9,434.2,641.9,433.9,640.6,433.9z"/>
	<path d="M670.1,447.1h-7.7l-2.1,5.8h-2.5l8-21.3h1.1l8,21.3h-2.6L670.1,447.1z M668.6,430.4h-2.2l-4.7-2.9v-0.6h3.4L668.6,430.4z
		 M663.2,445h6.1l-2.3-6.4l-0.7-3.2h0l-0.7,3.2L663.2,445z"/>
	<path d="M696.8,452.9h-12.4v-21h2.5v18.8h9.9V452.9z"/>
	<path d="M694.9,433.2c0-0.5,0.1-0.8,0.4-1.1c0.3-0.3,0.7-0.4,1.1-0.4c0.6,0,1,0.2,1.4,0.5c0.3,0.3,0.5,0.9,0.5,1.6
		c0,0.7-0.1,1.2-0.3,1.7c-0.2,0.5-0.4,0.9-0.7,1.2c-0.3,0.3-0.6,0.6-0.9,0.8c-0.3,0.2-0.6,0.3-0.8,0.4l-0.8-1
		c0.5-0.2,0.8-0.5,1.1-0.9c0.3-0.4,0.4-0.8,0.4-1.4c-0.1,0-0.2,0-0.3,0c-0.4,0-0.7-0.1-0.9-0.4C695,434,694.9,433.6,694.9,433.2z"/>
	<path d="M708.3,447.1h-7.7l-2.1,5.8h-2.5l8-21.3h1.1l8,21.3h-2.6L708.3,447.1z M701.5,445h6.1l-2.3-6.4l-0.7-3.2h0l-0.7,3.2
		L701.5,445z"/>
	<path d="M728.6,452.1c-0.6,0.5-1.4,0.8-2.3,1s-1.9,0.3-2.9,0.3c-1.3,0-2.4-0.2-3.5-0.6c-1.1-0.4-2.1-1.1-2.9-2s-1.5-2-1.9-3.4
		c-0.5-1.4-0.7-3-0.7-4.9c0-2,0.3-3.6,0.8-5c0.5-1.4,1.2-2.5,2.1-3.4s1.8-1.5,2.9-1.9c1.1-0.4,2.2-0.6,3.3-0.6
		c1.2,0,2.2,0.1,2.9,0.2c0.8,0.1,1.4,0.3,2,0.5l-0.6,2.2c-1-0.5-2.3-0.7-4.1-0.7c-0.8,0-1.6,0.2-2.4,0.5s-1.5,0.8-2.1,1.5
		c-0.6,0.7-1.1,1.6-1.5,2.7c-0.4,1.1-0.6,2.5-0.6,4c0,1.4,0.2,2.7,0.5,3.8c0.4,1.1,0.9,2,1.5,2.7c0.6,0.7,1.4,1.3,2.2,1.6
		c0.8,0.4,1.8,0.5,2.8,0.5c0.9,0,1.7-0.1,2.4-0.3c0.7-0.2,1.2-0.4,1.7-0.7L728.6,452.1z"/>
	<path d="M745,452.1c-0.6,0.5-1.4,0.8-2.3,1s-1.9,0.3-2.9,0.3c-1.3,0-2.4-0.2-3.5-0.6c-1.1-0.4-2.1-1.1-2.9-2s-1.5-2-1.9-3.4
		c-0.5-1.4-0.7-3-0.7-4.9c0-2,0.3-3.6,0.8-5c0.5-1.4,1.2-2.5,2.1-3.4s1.8-1.5,2.9-1.9c1.1-0.4,2.2-0.6,3.3-0.6
		c1.2,0,2.2,0.1,2.9,0.2c0.8,0.1,1.4,0.3,2,0.5l-0.6,2.2c-1-0.5-2.3-0.7-4.1-0.7c-0.8,0-1.6,0.2-2.4,0.5s-1.5,0.8-2.1,1.5
		c-0.6,0.7-1.1,1.6-1.5,2.7c-0.4,1.1-0.6,2.5-0.6,4c0,1.4,0.2,2.7,0.5,3.8c0.4,1.1,0.9,2,1.5,2.7c0.6,0.7,1.4,1.3,2.2,1.6
		c0.8,0.4,1.8,0.5,2.8,0.5c0.9,0,1.7-0.1,2.4-0.3c0.7-0.2,1.2-0.4,1.7-0.7L745,452.1z"/>
	<path d="M760.7,431.9h2.4v14c0,1.3-0.2,2.4-0.5,3.3c-0.3,0.9-0.8,1.7-1.4,2.3c-0.6,0.6-1.3,1-2.2,1.3c-0.9,0.3-1.8,0.4-2.9,0.4
		c-2.5,0-4.3-0.6-5.6-1.7c-1.3-1.1-1.9-2.8-1.9-5.1v-14.5h2.5v13.3c0,1.1,0.1,2,0.3,2.7c0.2,0.7,0.5,1.3,0.9,1.8
		c0.4,0.5,0.9,0.8,1.6,1s1.4,0.3,2.2,0.3c1.6,0,2.8-0.4,3.5-1.3s1.1-2.4,1.1-4.4V431.9z"/>
	<path d="M768.2,431.9h11.4v2.2h-8.9v6.9h8.2v2.2h-8.2v7.5h9.1v2.2h-11.6V431.9z"/>
	<path d="M784.9,431.9h2.5v21h-2.5V431.9z"/>
	<path d="M805.4,452.9H793v-21h2.5v18.8h9.9V452.9z"/>
</g>
</svg>
